<svg version="1.1" id="Layer_1" xmlns="http://www.w3.org/2000/svg" xmlns:xlink="http://www.w3.org/1999/xlink" x="0px" y="0px"
	 width="100%" viewBox="0 0 1810 1810" enable-background="new 0 0 1810 1810" xml:space="preserve">
<path fill="#818181" opacity="1.000000" stroke="none" 
	d="
M1273.030029,966.087708 
	C1272.973022,968.085022 1272.866333,970.082336 1272.866089,972.079651 
	C1272.857788,1056.238281 1272.859131,1140.396973 1272.859131,1224.555542 
	C1272.859131,1394.536499 1272.859131,1564.517456 1272.859131,1734.498413 
	C1272.859131,1736.306641 1272.859009,1738.114746 1272.859009,1740.215820 
	C1043.803589,1740.215820 815.072266,1740.215820 585.945801,1740.215820 
	C585.945801,1738.102051 585.945801,1736.137451 585.945801,1734.172852 
	C585.945801,1575.687988 585.951599,1417.203125 585.943604,1258.718262 
	C585.938721,1161.562012 585.912720,1064.405762 585.895630,966.314514 
	C585.917664,892.529541 585.945496,819.679688 585.923157,746.829773 
	C585.922729,745.406738 585.333252,743.983765 585.011230,742.522583 
	C585.003906,742.484436 585.001953,742.406799 585.001953,742.406860 
	C586.990479,742.303223 588.979065,742.109680 590.967590,742.109070 
	C645.619263,742.092651 700.270935,742.095947 754.922607,742.095947 
	C756.732971,742.095947 758.543335,742.095947 760.636230,742.095947 
	C760.636230,719.763062 760.636230,697.704651 760.636230,675.118408 
	C758.753113,675.118408 756.974060,675.118469 755.195068,675.118469 
	C713.206604,675.118286 671.209839,674.616577 629.232849,675.310852 
	C605.048706,675.710876 585.398193,656.711548 585.600525,631.702026 
	C586.158630,562.725464 586.159424,493.738464 585.592773,424.762054 
	C585.396423,400.861115 603.528442,380.297882 629.645874,381.030762 
	C645.795227,381.483948 661.968140,381.098877 678.898315,381.405823 
	C683.100525,381.509033 686.534729,381.296509 689.968994,381.083984 
	C849.026306,381.091522 1008.083557,381.099091 1167.915039,381.422913 
	C1172.434692,381.571625 1176.180176,381.404053 1179.925537,381.236481 
	C1197.581177,381.202240 1215.241943,380.883087 1232.890991,381.205505 
	C1255.178223,381.612579 1272.916138,399.751587 1272.948120,422.083038 
	C1273.049683,492.882385 1273.061401,563.682068 1272.941406,634.481384 
	C1272.903198,657.051941 1254.840210,674.994873 1232.188110,675.071045 
	C1189.375732,675.214966 1146.562500,675.116272 1103.749634,675.118408 
	C1101.957275,675.118469 1100.164917,675.118408 1098.133057,675.118408 
	C1098.133057,697.579224 1098.133057,719.633240 1098.133057,742.192139 
	C1156.229858,742.192139 1214.154785,742.192139 1272.541382,742.736145 
	C1273.012085,817.549316 1273.021118,891.818542 1273.030029,966.087708 
M1205.500122,1252.795776 
	C1006.099487,1252.795776 806.698853,1252.795776 607.248779,1252.795776 
	C607.248779,1408.595337 607.248779,1563.938110 607.248779,1719.242676 
	C822.282227,1719.242676 1036.981934,1719.242676 1251.641846,1719.242676 
	C1251.641846,1563.653564 1251.641846,1408.412720 1251.641846,1252.795776 
	C1236.427124,1252.795776 1221.463745,1252.795776 1205.500122,1252.795776 
M606.916626,1045.500000 
	C606.916626,1106.919434 606.916626,1168.338867 606.916626,1229.626709 
	C822.259827,1229.626709 1036.982544,1229.626709 1251.649292,1229.626709 
	C1251.649292,1074.012451 1251.649292,918.750183 1251.649292,763.330566 
	C1036.678467,763.330566 821.952942,763.330566 607.291687,763.330566 
	C607.129089,763.897949 606.964905,764.203308 606.964844,764.508667 
	C606.941345,857.839111 606.929138,951.169556 606.916626,1045.500000 
M864.500000,742.098572 
	C930.079407,742.098572 995.658752,742.098572 1061.192627,742.098572 
	C1061.192627,719.419922 1061.192627,697.365173 1061.192627,675.355469 
	C973.047791,675.355469 885.288025,675.355469 797.342102,675.355469 
	C797.342102,697.654297 797.342102,719.712830 797.342102,742.098572 
	C819.568848,742.098572 841.534424,742.098572 864.500000,742.098572 
M824.984985,519.664612 
	C824.659485,517.864258 824.363037,516.058105 824.004150,514.264404 
	C817.331421,480.916351 787.053284,454.253448 753.389282,452.072449 
	C704.702637,448.918182 666.359924,486.060211 667.921570,534.863647 
	C669.423218,581.789551 715.283752,617.926575 761.345825,608.479675 
	C803.321045,599.870972 829.754944,563.380920 824.984985,519.664612 
M1074.940674,461.331757 
	C1045.100342,478.713531 1029.055420,510.696747 1034.368408,542.206055 
	C1041.754150,586.006775 1078.827881,613.978821 1123.016479,609.090637 
	C1166.116089,604.322937 1198.365479,561.067078 1190.662476,518.357422 
	C1180.903442,464.247131 1124.498657,436.132690 1074.940674,461.331757 
M933.094604,631.595337 
	C937.618713,628.070190 936.510315,623.211914 935.530701,618.836853 
	C934.646179,614.886597 929.191833,613.431763 925.708008,615.635071 
	C922.595215,617.603760 921.071594,624.741272 923.227722,628.808777 
	C925.201294,632.531921 928.390259,633.715820 933.094604,631.595337 
M932.641296,424.508667 
	C928.742920,422.936371 925.444824,423.623169 923.305664,427.399353 
	C921.450439,430.674133 922.413025,437.897278 924.747131,440.027588 
	C928.147217,443.130768 934.128906,442.161377 935.405884,437.779968 
	C936.666260,433.455688 937.600281,428.642273 932.641296,424.508667 
M922.888184,532.420837 
	C924.384521,536.601318 927.555786,538.082886 931.522461,536.821289 
	C936.922302,535.103943 936.163208,530.306946 936.097107,526.027344 
	C936.037048,522.136719 933.884644,519.680542 930.231812,519.203003 
	C926.298279,518.688721 923.444763,520.672302 922.781860,524.747498 
	C922.416992,526.990906 922.715881,529.342407 922.888184,532.420837 
z"/>
<path fill="#818181" opacity="1.000000" stroke="none" 
	d="
M429.732147,687.135254 
	C420.099915,687.135254 410.467682,687.135254 400.593384,687.135254 
	C400.593384,557.293335 400.593384,427.869476 400.593384,297.877075 
	C417.405304,297.877075 434.127258,297.877075 451.008545,297.877075 
	C451.161163,296.371674 451.342377,295.411713 451.343384,294.451569 
	C451.360962,277.785339 451.301270,261.118774 451.412018,244.453293 
	C451.430023,241.742661 450.739471,240.492462 447.975586,239.505371 
	C405.997833,224.513397 381.744843,187.235886 385.065155,143.104034 
	C388.041168,103.548256 420.149139,68.221443 459.586426,61.112045 
	C509.499573,52.114143 556.083374,82.831573 567.252747,132.107346 
	C577.486206,177.254028 551.632019,223.824295 507.738037,238.914001 
	C503.975830,240.207352 502.630188,241.642029 502.698395,245.758621 
	C502.982300,262.901062 502.817810,280.050903 502.817810,297.712311 
	C519.865906,297.712311 536.606445,297.712311 553.581543,297.712311 
	C553.581543,427.648132 553.581543,557.067932 553.581543,687.167480 
	C544.097778,687.167480 534.670227,687.167480 524.307556,687.114746 
	C492.158997,687.086426 460.945587,687.110840 429.732147,687.135254 
M419.573822,166.778137 
	C426.838806,193.724518 450.373199,211.859741 478.074585,211.116608 
	C503.285980,210.440262 521.708191,198.146866 531.534851,175.176483 
	C541.361389,152.206406 537.642151,130.160812 520.607300,111.699951 
	C503.720795,93.399773 482.358154,88.204483 458.624359,95.495689 
	C432.321899,103.576004 411.745300,131.569992 419.573822,166.778137 
z"/>
<path fill="#818181" opacity="1.000000" stroke="none" 
	d="
M1273.495361,966.125671 
	C1273.021118,891.818542 1273.012085,817.549316 1273.000488,742.836548 
	C1274.484497,742.295715 1275.971313,742.113770 1277.458130,742.113403 
	C1334.450928,742.099365 1391.443604,742.071228 1448.436401,742.115112 
	C1477.570312,742.137573 1500.249512,760.922668 1505.499390,789.399292 
	C1506.157959,792.971069 1506.174561,796.694580 1506.179321,800.348267 
	C1506.225952,836.343628 1506.257935,872.339233 1506.192505,908.334534 
	C1506.131226,942.031494 1481.962402,966.069336 1448.180298,966.167603 
	C1442.029297,966.185486 1435.878174,966.170105 1428.988403,966.170105 
	C1428.988403,984.258484 1428.988403,1002.170471 1428.494873,1020.543457 
	C1396.949341,1020.983948 1365.897583,1020.963501 1334.845703,1020.942993 
	C1334.845703,1002.856079 1334.845703,984.769226 1334.845703,966.163635 
	C1314.118408,966.163635 1294.039551,966.163635 1273.495361,966.125671 
M1404.803345,862.970398 
	C1405.039673,862.173584 1405.301147,861.383240 1405.508545,860.578918 
	C1408.112549,850.485840 1404.341064,840.055725 1395.959229,834.147949 
	C1387.775879,828.380127 1376.664917,828.217651 1368.292480,833.743835 
	C1359.787720,839.357056 1355.742554,849.260681 1357.849121,859.311401 
	C1360.035278,869.742981 1368.325684,877.247803 1379.262695,878.695679 
	C1389.481689,880.048523 1399.305908,874.188477 1404.803345,862.970398 
z"/>
<path fill="#818181" opacity="1.000000" stroke="none" 
	d="
M584.544922,742.296265 
	C585.001953,742.406799 585.003906,742.484436 585.019531,743.034302 
	C585.027344,817.741272 585.019592,891.898254 585.011841,966.055298 
	C578.184998,966.120239 571.358215,966.239502 564.531372,966.241455 
	C512.871826,966.256104 461.212036,966.333557 409.552795,966.212402 
	C381.150909,966.145813 358.759094,947.492310 353.472900,919.702576 
	C352.732452,915.809998 352.685577,911.745239 352.679169,907.759521 
	C352.621887,872.097900 352.602173,836.435974 352.658051,800.774292 
	C352.712128,766.247131 376.931519,742.210510 411.594482,742.165222 
	C417.556152,742.157471 423.517822,742.164124 429.956970,742.164124 
	C429.956970,724.174438 429.956970,706.558716 430.488342,688.480286 
	C462.009766,688.012390 492.999817,688.007141 523.989868,688.001892 
	C523.989868,705.802368 523.989868,723.602844 523.989868,742.185730 
	C544.289978,742.185730 564.188904,742.185730 584.544922,742.296265 
M478.371765,829.859314 
	C475.900879,830.079407 473.343597,829.964478 470.973480,830.575562 
	C458.311798,833.840210 450.885895,845.575439 452.961609,858.747986 
	C454.841766,870.679565 466.654877,879.857666 478.836823,878.851440 
	C491.509430,877.804626 501.330200,867.453918 501.691254,854.763611 
	C502.053009,842.048340 492.544464,831.506287 478.371765,829.859314 
z"/>
<path fill="#818181" opacity="1.000000" stroke="none" 
	d="
M1458.225464,1381.883789 
	C1458.225464,1391.360352 1458.225464,1400.836792 1458.225464,1410.799561 
	C1441.385864,1410.799561 1424.635010,1410.799561 1407.425293,1410.799561 
	C1407.425293,1425.221558 1408.068481,1439.201294 1407.211914,1453.088379 
	C1406.581177,1463.315063 1409.001709,1468.421753 1419.587769,1472.809814 
	C1456.375610,1488.058960 1478.623779,1528.019165 1473.742065,1566.380615 
	C1468.370972,1608.587402 1437.692383,1641.099976 1396.885986,1647.830933 
	C1349.722900,1655.610474 1303.873047,1625.662598 1292.211182,1579.459839 
	C1280.470825,1532.946411 1306.077759,1485.297119 1351.389893,1469.337524 
	C1352.922852,1468.797852 1354.450806,1468.244263 1355.983032,1467.696533 
	C1355.983032,1448.822266 1355.983032,1430.184814 1355.983032,1411.079468 
	C1339.194824,1411.079468 1322.468262,1411.079468 1305.412354,1411.079468 
	C1305.412354,1401.225464 1305.412354,1391.830322 1305.412354,1381.883057 
	C1355.940674,1381.883057 1406.514893,1381.883057 1457.589966,1381.923706 
	C1458.090698,1381.964355 1458.225464,1381.883789 1458.225464,1381.883789 
M1340.861206,1599.650269 
	C1355.420654,1612.945312 1372.397461,1618.227051 1391.932983,1615.107300 
	C1424.702637,1609.874023 1446.368652,1578.076416 1439.986694,1544.552246 
	C1433.931030,1512.741943 1400.958008,1491.152222 1369.327148,1498.581909 
	C1346.757812,1503.883179 1331.450073,1517.678467 1324.951294,1539.972656 
	C1318.394531,1562.465210 1324.061646,1582.327637 1340.861206,1599.650269 
z"/>
<path fill="#818181" opacity="1.000000" stroke="none" 
	d="
M869.548828,328.722992 
	C908.994507,328.746033 948.440186,328.769073 988.672852,328.882568 
	C989.908203,328.988525 990.356567,329.004028 991.293762,329.026306 
	C1008.252747,329.028595 1024.723022,329.024109 1041.527344,329.011475 
	C1042.306030,328.977875 1042.750854,328.952454 1043.195557,328.927032 
	C1066.647827,328.927032 1090.100098,328.927032 1113.787720,328.927032 
	C1113.787720,342.510498 1113.787720,355.916077 1113.787720,369.557556 
	C990.875732,369.557556 868.152649,369.557556 745.070923,369.557556 
	C745.070923,356.100189 745.070923,342.719208 745.070923,328.783173 
	C768.283142,328.783173 791.549072,328.783173 815.748535,328.877228 
	C834.304382,328.888519 851.926636,328.805756 869.548828,328.722992 
z"/>
<path fill="#818181" opacity="1.000000" stroke="none" 
	d="
M1305.090210,1266.821411 
	C1305.083740,1243.827881 1305.077271,1220.834473 1305.143921,1197.168213 
	C1305.449585,1196.273193 1305.705322,1196.081543 1305.984131,1195.920776 
	C1354.875366,1195.957153 1403.766479,1195.993774 1452.657715,1196.030029 
	C1454.456177,1196.031250 1456.254517,1196.030029 1458.395874,1196.030029 
	C1458.395874,1219.670288 1458.395874,1242.907227 1458.218384,1266.569092 
	C1458.040894,1266.994019 1458.019287,1267.057983 1458.019287,1267.057983 
	C1407.662842,1267.042725 1357.306274,1267.027466 1306.261719,1266.977417 
	C1305.573730,1266.942505 1305.090210,1266.821411 1305.090210,1266.821411 
z"/>
<path fill="#818181" opacity="1.000000" stroke="none" 
	d="
M1334.391602,1021.016174 
	C1365.897583,1020.963501 1396.949341,1020.983948 1428.465332,1021.012573 
	C1438.535278,1021.020752 1448.141113,1021.020752 1458.435669,1021.020752 
	C1458.435669,1040.429321 1458.435669,1059.299683 1457.922119,1078.643066 
	C1408.448853,1079.116455 1359.489380,1079.119629 1310.529785,1079.107666 
	C1308.705688,1079.107178 1306.881470,1078.960571 1305.057373,1078.882080 
	C1305.057373,1059.914917 1305.057373,1040.947632 1305.057373,1021.089355 
	C1314.805298,1021.089355 1324.371460,1021.089355 1334.391602,1021.016174 
z"/>
<path fill="#818181" opacity="1.000000" stroke="none" 
	d="
M1458.027344,1088.990479 
	C1458.027344,1106.448242 1458.027344,1123.906006 1458.027344,1141.690674 
	C1407.450073,1141.690674 1356.591553,1141.690674 1305.098022,1141.690674 
	C1305.098022,1124.609741 1305.098022,1107.369629 1305.563599,1089.633789 
	C1317.159668,1089.134277 1328.290161,1089.136841 1339.420654,1089.125000 
	C1378.956177,1089.082764 1418.491821,1089.035767 1458.027344,1088.990479 
z"/>
<path fill="#818181" opacity="1.000000" stroke="none" 
	d="
M1305.086670,1366.827759 
	C1305.091919,1349.932373 1305.097046,1333.036865 1305.347656,1315.638428 
	C1305.593140,1315.135254 1306.017456,1314.899902 1306.017456,1314.899902 
	C1328.500610,1314.958496 1350.983887,1315.043579 1373.467041,1315.068726 
	C1399.952881,1315.098145 1426.438843,1315.075684 1452.924683,1315.075684 
	C1454.565918,1315.075684 1456.207153,1315.075684 1458.398438,1315.075684 
	C1458.398438,1332.313477 1458.398438,1349.230347 1458.224854,1366.575562 
	C1458.051392,1367.003906 1458.023438,1367.073486 1458.023438,1367.073486 
	C1407.666260,1367.059204 1357.309204,1367.045044 1306.262939,1366.994873 
	C1305.411377,1366.915161 1305.249023,1366.871460 1305.086670,1366.827759 
z"/>
<path fill="#818181" opacity="1.000000" stroke="none" 
	d="
M1458.059082,1186.301270 
	C1409.450073,1186.259155 1360.841064,1186.216919 1312.232056,1186.174927 
	C1310.070801,1186.173096 1307.909668,1186.174561 1305.415771,1186.174561 
	C1305.415771,1174.818359 1305.415771,1163.609863 1305.415771,1151.895020 
	C1356.004883,1151.895020 1406.556885,1151.895020 1457.628174,1151.931519 
	C1458.147461,1151.968018 1458.303467,1151.841553 1458.303467,1151.841553 
	C1458.347412,1162.972046 1458.391357,1174.102539 1458.307495,1185.634033 
	C1458.179688,1186.034912 1458.059082,1186.301270 1458.059082,1186.301270 
z"/>
<path fill="#818181" opacity="1.000000" stroke="none" 
	d="
M679.020569,379.992706 
	C671.367249,377.575378 666.345337,371.300110 665.946411,363.655365 
	C665.508362,355.259460 669.693359,347.897003 677.424927,345.063019 
	C680.949646,343.771057 681.722595,342.053497 681.713257,338.632141 
	C681.605835,299.474426 681.643005,260.316284 681.649292,221.158279 
	C681.649658,218.705032 681.984985,216.688141 678.580933,215.461380 
	C669.061035,212.030563 664.179504,202.881134 666.238220,193.654327 
	C668.233765,184.710083 676.236145,178.625198 685.609436,178.924774 
	C694.723022,179.216049 702.063416,185.984741 703.467834,195.392258 
	C704.818787,204.441208 699.293152,212.754532 689.786804,215.966034 
	C689.322083,216.123032 688.840332,216.229736 688.164551,216.415329 
	C688.164551,258.682495 688.164551,300.969391 688.164551,343.488068 
	C697.596558,346.126099 703.240479,352.210205 703.645630,362.237061 
	C703.967957,370.214386 699.173706,376.571320 690.115845,380.051819 
	C685.902832,380.010956 682.461731,380.001831 679.020569,379.992706 
z"/>
<path fill="#818181" opacity="1.000000" stroke="none" 
	d="
M1179.780029,380.860046 
	C1176.180176,381.404053 1172.434692,381.571625 1168.385864,381.479584 
	C1167.803711,380.809265 1167.619873,380.211273 1167.232544,380.015228 
	C1158.570923,375.631348 1154.367188,368.999268 1155.050659,360.702362 
	C1155.725952,352.506470 1160.931763,346.648834 1170.542725,343.510437 
	C1170.542725,301.361145 1170.542725,259.112396 1170.542725,216.856537 
	C1158.478149,211.687698 1153.186279,203.685425 1155.391724,193.929016 
	C1157.507935,184.567184 1165.406494,178.529633 1175.026123,178.920578 
	C1184.031372,179.286560 1191.538818,186.324142 1192.793945,195.576752 
	C1194.055420,204.875031 1188.177979,212.908829 1177.263794,216.602539 
	C1177.263794,258.818329 1177.263794,301.100861 1177.263794,343.335602 
	C1187.516113,347.045654 1192.851929,353.162811 1192.852417,361.821259 
	C1192.853027,371.023163 1187.996582,377.063477 1179.780029,380.860046 
z"/>
<path fill="#818181" opacity="1.000000" stroke="none" 
	d="
M1458.246826,1281.874512 
	C1458.246826,1287.830811 1458.246826,1293.787109 1458.246826,1300.004395 
	C1407.284180,1300.004395 1356.507202,1300.004395 1305.405884,1300.004395 
	C1305.405884,1294.264160 1305.405884,1288.358398 1305.405884,1281.860962 
	C1355.923096,1281.860962 1406.506226,1281.860962 1457.591675,1281.910400 
	C1458.093872,1281.959839 1458.246826,1281.874512 1458.246826,1281.874512 
z"/>
<path fill="#818181" opacity="1.000000" stroke="none" 
	d="
M990.804993,329.019531 
	C990.356567,329.004028 989.908203,328.988525 989.124268,328.947083 
	C988.788757,318.822296 988.788757,308.723419 988.788757,298.091583 
	C996.708557,298.091583 1004.073608,298.091583 1011.831543,298.091583 
	C1011.831543,291.504700 1011.831543,285.434204 1011.831543,279.109375 
	C1014.628845,279.109375 1017.037109,279.109375 1019.825378,279.109375 
	C1019.825378,285.093719 1019.825378,291.177124 1019.825378,297.783081 
	C1027.541992,297.783081 1034.916626,297.783081 1042.887939,297.783081 
	C1042.887939,308.216003 1042.887939,318.129944 1043.041748,328.485474 
	C1042.750854,328.952454 1042.306030,328.977875 1041.215576,328.700256 
	C1024.536255,328.280579 1008.502625,328.154022 992.468689,328.088623 
	C991.915405,328.086334 991.359619,328.695404 990.804993,329.019531 
z"/>
<path fill="#818181" opacity="1.000000" stroke="none" 
	d="
M816.126221,327.979126 
	C816.126221,318.177612 816.126221,308.376099 816.126221,298.019653 
	C823.523926,298.019653 830.894165,298.019653 838.705872,298.019653 
	C838.705872,291.406158 838.705872,285.328369 838.705872,279.059967 
	C841.571716,279.059967 843.981934,279.059967 846.825562,279.059967 
	C846.825562,285.330963 846.825562,291.411041 846.825562,297.903015 
	C854.493103,297.903015 861.744202,297.903015 869.389038,297.903015 
	C869.389038,307.924164 869.389038,317.523163 868.800476,327.553558 
	C850.850037,327.983002 833.488098,327.981049 816.126221,327.979126 
z"/>
<path fill="#818181" opacity="1.000000" stroke="none" 
	d="
M989.132935,254.083069 
	C989.132935,251.610336 989.132935,249.627441 989.132935,247.248718 
	C1006.976562,247.248718 1024.642700,247.248718 1042.555908,247.248718 
	C1042.555908,257.198181 1042.555908,267.105865 1042.555908,277.398041 
	C1024.897705,277.398041 1007.350403,277.398041 989.132935,277.398041 
	C989.132935,269.735596 989.132935,262.154266 989.132935,254.083069 
z"/>
<path fill="#818181" opacity="1.000000" stroke="none" 
	d="
M841.000122,277.775635 
	C832.529114,277.774719 824.558167,277.774719 816.288513,277.774719 
	C816.288513,267.289734 816.288513,257.244690 816.288513,247.025620 
	C833.891846,247.025620 851.338257,247.025620 869.108948,247.025620 
	C869.108948,257.152435 869.108948,267.193329 869.108948,277.776550 
	C859.753906,277.776550 850.627014,277.776550 841.000122,277.775635 
z"/>
<path fill="#818181" opacity="1.000000" stroke="none" 
	d="
M585.189331,966.193481 
	C585.019592,891.898254 585.027344,817.741272 585.026855,743.072510 
	C585.333252,743.983765 585.922729,745.406738 585.923157,746.829773 
	C585.945496,819.679688 585.917664,892.529541 585.855469,965.869995 
	C585.815796,966.360596 585.366821,966.331726 585.189331,966.193481 
z"/>
<path fill="#818181" opacity="1.000000" stroke="none" 
	d="
M524.140137,687.822021 
	C492.999817,688.007141 462.009766,688.012390 430.557129,688.017090 
	C430.094543,688.016541 429.829346,687.610474 429.780762,687.372864 
	C460.945587,687.110840 492.158997,687.086426 523.860840,687.119568 
	C524.349243,687.177124 524.290344,687.642090 524.140137,687.822021 
z"/>
<path fill="#818181" opacity="1.000000" stroke="none" 
	d="
M815.979431,328.177704 
	C833.488098,327.981049 850.850037,327.983002 868.691406,328.014099 
	C869.170837,328.043304 869.551392,328.276642 869.550110,328.499817 
	C851.926636,328.805756 834.304382,328.888519 816.197998,328.913452 
	C815.713745,328.855652 815.832642,328.376282 815.979431,328.177704 
z"/>
<path fill="#818181" opacity="1.000000" stroke="none" 
	d="
M679.187561,380.286011 
	C682.461731,380.001831 685.902832,380.010956 689.757324,380.042480 
	C690.095215,380.226471 690.019775,380.388031 689.956665,380.816772 
	C686.534729,381.296509 683.100525,381.509033 679.369019,381.456909 
	C679.166016,380.987976 679.260254,380.783661 679.187561,380.286011 
z"/>
<path fill="#DDDDDD" opacity="1.000000" stroke="none" 
	d="
M1458.064209,1267.018555 
	C1458.328735,1271.794189 1458.570068,1276.545410 1458.529053,1281.585571 
	C1458.246826,1281.874512 1458.093872,1281.959839 1458.061157,1281.878540 
	C1458.011719,1277.191650 1457.995117,1272.585938 1457.998779,1267.519165 
	C1458.019287,1267.057983 1458.040894,1266.994019 1458.064209,1267.018555 
z"/>
<path fill="#DDDDDD" opacity="1.000000" stroke="none" 
	d="
M1458.079834,1367.028320 
	C1458.338257,1371.805298 1458.568115,1376.558105 1458.511719,1381.597290 
	C1458.225464,1381.883789 1458.090698,1381.964355 1458.059448,1381.892334 
	C1458.009888,1377.211426 1457.991577,1372.602539 1457.998291,1367.533447 
	C1458.023438,1367.073486 1458.051392,1367.003906 1458.079834,1367.028320 
z"/>
<path fill="#DDDDDD" opacity="1.000000" stroke="none" 
	d="
M1306.020508,1314.443848 
	C1306.017456,1314.899902 1305.593140,1315.135254 1305.355591,1315.184448 
	C1305.118042,1311.156982 1305.118042,1307.080322 1305.118042,1303.003662 
	C1305.419800,1303.001831 1305.721680,1303.000000 1306.023438,1302.998169 
	C1306.023438,1306.661377 1306.023438,1310.324707 1306.020508,1314.443848 
z"/>
<path fill="#DDDDDD" opacity="1.000000" stroke="none" 
	d="
M1305.053223,1267.293945 
	C1305.090210,1266.821411 1305.573730,1266.942505 1305.799438,1267.048340 
	C1306.025146,1271.052734 1306.025146,1274.951416 1306.025146,1278.849976 
	C1305.688843,1278.860107 1305.352661,1278.870117 1305.016357,1278.880127 
	C1305.016357,1275.175537 1305.016357,1271.470947 1305.053223,1267.293945 
z"/>
<path fill="#DDDDDD" opacity="1.000000" stroke="none" 
	d="
M1305.047852,1367.299683 
	C1305.249023,1366.871460 1305.411377,1366.915161 1305.801147,1367.068237 
	C1306.028442,1371.071045 1306.028442,1374.964600 1306.028442,1378.858032 
	C1305.688599,1378.867920 1305.348877,1378.877930 1305.009033,1378.887817 
	C1305.009033,1375.182373 1305.009033,1371.477051 1305.047852,1367.299683 
z"/>
<path fill="#DDDDDD" opacity="1.000000" stroke="none" 
	d="
M1459.031616,1311.314331 
	C1458.900269,1312.172607 1458.772705,1312.633423 1458.264893,1314.467529 
	C1458.264893,1309.736572 1458.264893,1306.395386 1458.264893,1303.054199 
	C1458.521729,1303.043213 1458.778687,1303.032349 1459.035522,1303.021484 
	C1459.035522,1305.653320 1459.035522,1308.285034 1459.031616,1311.314331 
z"/>
<path fill="#DDDDDD" opacity="1.000000" stroke="none" 
	d="
M1305.964600,1195.499023 
	C1305.705322,1196.081543 1305.449585,1196.273193 1305.085693,1196.696289 
	C1304.954224,1194.326050 1304.954224,1191.755127 1304.954224,1189.184204 
	C1305.284424,1189.177734 1305.614746,1189.171387 1305.944946,1189.165039 
	C1305.944946,1191.135864 1305.944946,1193.106567 1305.964600,1195.499023 
z"/>
<path fill="#DDDDDD" opacity="1.000000" stroke="none" 
	d="
M1458.302246,1186.114502 
	C1458.696045,1188.836304 1458.967041,1191.478394 1459.238159,1194.120605 
	C1458.799194,1194.142456 1458.360229,1194.164307 1457.921265,1194.186035 
	C1457.921265,1191.837402 1457.921265,1189.488647 1457.990234,1186.720703 
	C1458.059082,1186.301270 1458.179688,1186.034912 1458.302246,1186.114502 
z"/>
<path fill="#DDDDDD" opacity="1.000000" stroke="none" 
	d="
M1458.097412,1151.880981 
	C1458.047363,1149.173950 1458.047363,1146.554077 1458.047363,1143.934082 
	C1458.316284,1143.928711 1458.585327,1143.923340 1458.854248,1143.917969 
	C1458.854248,1146.378296 1458.854248,1148.838501 1458.578857,1151.570190 
	C1458.303467,1151.841553 1458.147461,1151.968018 1458.097412,1151.880981 
z"/>
<path fill="#DDDDDD" opacity="1.000000" stroke="none" 
	d="
M1305.289062,1148.748657 
	C1305.128662,1147.371216 1305.128662,1146.241089 1305.128662,1145.111084 
	C1305.402466,1145.130249 1305.676270,1145.149414 1305.949951,1145.168579 
	C1305.783203,1146.444336 1305.616455,1147.720215 1305.289062,1148.748657 
z"/>
<path fill="#FEFEFE" opacity="1.000000" stroke="none" 
	d="
M1206.000244,1252.795776 
	C1221.463745,1252.795776 1236.427124,1252.795776 1251.641846,1252.795776 
	C1251.641846,1408.412720 1251.641846,1563.653564 1251.641846,1719.242676 
	C1036.981934,1719.242676 822.282227,1719.242676 607.248779,1719.242676 
	C607.248779,1563.938110 607.248779,1408.595337 607.248779,1252.795776 
	C806.698853,1252.795776 1006.099487,1252.795776 1206.000244,1252.795776 
M1106.136841,1430.630005 
	C1101.085693,1506.828857 1103.813721,1583.113892 1102.982300,1659.476074 
	C1116.992554,1659.476074 1130.377441,1659.476074 1143.620728,1659.476074 
	C1143.620728,1541.085938 1143.620728,1423.025635 1143.620728,1305.170898 
	C1122.834351,1305.170898 1102.409424,1305.170898 1081.762695,1305.170898 
	C1070.543945,1399.063965 1059.357544,1492.685547 1048.171265,1586.307129 
	C1047.843018,1586.273560 1047.514771,1586.240112 1047.186523,1586.206665 
	C1036.133423,1492.510132 1025.080322,1398.813599 1014.027222,1305.116577 
	C992.967957,1305.116577 972.377075,1305.116577 951.705566,1305.116577 
	C951.705566,1423.420532 951.705566,1541.474854 951.705566,1659.515137 
	C965.323303,1659.515137 978.580200,1659.515137 992.148926,1659.515137 
	C992.148926,1611.748413 992.802368,1564.260132 991.964905,1516.797974 
	C991.131775,1469.579224 988.801025,1422.386963 987.127014,1375.183228 
	C987.361084,1375.164917 987.595154,1375.146606 987.829224,1375.128296 
	C999.199707,1469.934692 1010.570190,1564.741089 1021.940002,1659.542603 
	C1039.026245,1659.542603 1055.622192,1659.542603 1072.547974,1659.542603 
	C1084.075317,1566.110107 1095.575928,1472.894775 1107.076416,1379.679565 
	C1107.596558,1379.723877 1108.116577,1379.768188 1108.636719,1379.812500 
	C1107.816650,1396.432129 1106.996704,1413.051636 1106.136841,1430.630005 
M852.175720,1507.500000 
	C852.175720,1440.070068 852.175720,1372.640015 852.175720,1305.068115 
	C838.409363,1305.068115 825.147217,1305.068115 811.388855,1305.068115 
	C811.388855,1326.720337 811.388794,1348.176392 811.388794,1369.632324 
	C811.388794,1391.129395 811.044617,1412.633423 811.485779,1434.121460 
	C811.926453,1455.586914 812.817383,1477.057007 814.130554,1498.486938 
	C815.432312,1519.732300 817.506714,1540.930420 819.242249,1562.149170 
	C818.921021,1562.185181 818.599792,1562.221069 818.278564,1562.257080 
	C799.755493,1476.545166 781.232422,1390.833252 762.700867,1305.082031 
	C746.749207,1305.082031 731.150452,1305.082031 715.388428,1305.082031 
	C715.388428,1423.334839 715.388428,1541.373413 715.388428,1659.455811 
	C729.065613,1659.455811 742.448730,1659.455811 755.997253,1659.455811 
	C755.997253,1658.277588 755.997314,1657.448975 755.997314,1656.620483 
	C755.997559,1603.294556 756.002502,1549.968506 755.980286,1496.642578 
	C755.979370,1494.482422 755.767029,1492.318115 755.576294,1490.162598 
	C753.080627,1461.959961 750.565430,1433.759033 748.080811,1405.555420 
	C747.956360,1404.142700 748.064819,1402.709473 748.064819,1401.285767 
	C761.798218,1459.813232 774.895203,1518.355591 788.009521,1576.894043 
	C793.933167,1603.335327 799.860413,1629.775757 805.923035,1656.185303 
	C806.234619,1657.542358 807.824219,1659.629883 808.846436,1659.646118 
	C823.130371,1659.874390 837.419128,1659.800903 852.175720,1659.800903 
	C852.175720,1609.061279 852.175720,1558.780640 852.175720,1507.500000 
M880.601074,1385.499634 
	C880.601074,1476.875610 880.601074,1568.251587 880.601074,1659.517334 
	C895.349121,1659.517334 909.276123,1659.517334 923.347595,1659.517334 
	C923.347595,1541.195435 923.347595,1423.163696 923.347595,1305.216309 
	C908.969482,1305.216309 894.912781,1305.216309 880.601196,1305.216309 
	C880.601196,1331.877075 880.601196,1358.188354 880.601074,1385.499634 
z"/>
<path fill="#FEFEFE" opacity="1.000000" stroke="none" 
	d="
M606.916626,1045.000000 
	C606.929138,951.169556 606.941345,857.839111 606.964844,764.508667 
	C606.964905,764.203308 607.129089,763.897949 607.291687,763.330566 
	C821.952942,763.330566 1036.678467,763.330566 1251.649292,763.330566 
	C1251.649292,918.750183 1251.649292,1074.012451 1251.649292,1229.626709 
	C1036.982544,1229.626709 822.259827,1229.626709 606.916626,1229.626709 
	C606.916626,1168.338867 606.916626,1106.919434 606.916626,1045.000000 
M845.808960,942.359741 
	C845.555359,920.708252 846.403503,898.972473 844.756287,877.427551 
	C842.892273,853.046692 830.445496,834.528564 807.057373,825.527588 
	C798.250244,822.138245 788.329224,820.573608 778.842773,820.236328 
	C757.372559,819.472900 735.856873,819.984741 714.359680,820.001160 
	C713.107056,820.002136 711.854553,820.210144 710.621826,820.320068 
	C710.621826,938.630859 710.621826,1056.556396 710.621826,1174.946411 
	C712.628601,1174.946411 714.419006,1174.964111 716.208923,1174.943604 
	C740.690125,1174.663330 765.249268,1175.502441 789.632751,1173.810547 
	C820.486938,1171.669312 844.002563,1148.168335 845.645630,1117.309937 
	C847.148743,1089.080078 846.630066,1060.683716 845.682861,1032.404907 
	C845.149292,1016.473938 837.799683,1002.982422 824.040222,993.775818 
	C823.517822,993.426208 822.887634,993.237793 821.903809,992.790710 
	C831.985474,986.079590 838.980286,978.020630 841.832825,967.356812 
	C843.921326,959.549438 844.529968,951.346069 845.808960,942.359741 
M958.963135,1177.648193 
	C965.921753,1175.001709 973.415039,1173.264404 979.741333,1169.542969 
	C1001.012207,1157.030273 1009.225586,1136.904907 1009.897217,1113.282715 
	C1010.399109,1095.631104 1010.019531,1077.954346 1010.018860,1060.288696 
	C1010.016541,1001.292053 1010.060791,942.295288 1009.966797,883.298767 
	C1009.941589,867.449646 1006.243408,852.536377 996.304871,839.829712 
	C981.422913,820.803101 960.859619,814.972717 937.797485,815.715759 
	C916.807312,816.391907 898.698120,823.462585 885.841919,840.890625 
	C876.503418,853.549988 873.026672,868.161072 873.016296,883.652466 
	C872.965454,959.481506 872.974854,1035.310547 873.037170,1111.139526 
	C873.040833,1115.618896 873.483337,1120.125488 874.075867,1124.572144 
	C877.503296,1150.292603 894.521423,1169.811157 919.480896,1176.575439 
	C932.234619,1180.031860 945.162720,1179.950562 958.963135,1177.648193 
M1082.500000,819.987183 
	C1065.057251,819.987183 1047.614380,819.987183 1030.145996,819.987183 
	C1030.145996,833.532166 1030.145996,846.589539 1030.145996,860.016479 
	C1045.016357,860.016479 1059.608887,860.016479 1074.647949,860.016479 
	C1074.647949,965.098511 1074.647949,1069.808716 1074.647949,1174.673340 
	C1089.165771,1174.673340 1103.228394,1174.673340 1117.743652,1174.673340 
	C1117.743652,1069.702637 1117.743652,965.003235 1117.743652,859.931763 
	C1132.784790,859.931763 1147.377563,859.931763 1162.165649,859.931763 
	C1162.165649,846.455200 1162.165649,833.352295 1162.165649,819.987183 
	C1135.793457,819.987183 1109.646729,819.987183 1082.500000,819.987183 
z"/>
<path fill="#FEFEFE" opacity="1.000000" stroke="none" 
	d="
M864.000000,742.098572 
	C841.534424,742.098572 819.568848,742.098572 797.342102,742.098572 
	C797.342102,719.712830 797.342102,697.654297 797.342102,675.355469 
	C885.288025,675.355469 973.047791,675.355469 1061.192627,675.355469 
	C1061.192627,697.365173 1061.192627,719.419922 1061.192627,742.098572 
	C995.658752,742.098572 930.079407,742.098572 864.000000,742.098572 
z"/>
<path fill="#FEFEFE" opacity="1.000000" stroke="none" 
	d="
M825.016113,520.104614 
	C829.754944,563.380920 803.321045,599.870972 761.345825,608.479675 
	C715.283752,617.926575 669.423218,581.789551 667.921570,534.863647 
	C666.359924,486.060211 704.702637,448.918182 753.389282,452.072449 
	C787.053284,454.253448 817.331421,480.916351 824.004150,514.264404 
	C824.363037,516.058105 824.659485,517.864258 825.016113,520.104614 
M717.172058,519.921570 
	C716.926636,520.716614 716.655029,521.504578 716.439819,522.307617 
	C712.923706,535.427856 717.805786,549.062561 728.738647,556.675232 
	C739.620056,564.252136 754.552063,564.115417 765.214661,556.341309 
	C776.097900,548.406372 780.762878,534.663757 776.949219,521.771851 
	C773.200500,509.099274 761.786804,500.208801 748.135376,499.327850 
	C735.253418,498.496582 723.383545,506.201691 717.172058,519.921570 
z"/>
<path fill="#FEFEFE" opacity="1.000000" stroke="none" 
	d="
M1075.277344,461.172058 
	C1124.498657,436.132690 1180.903442,464.247131 1190.662476,518.357422 
	C1198.365479,561.067078 1166.116089,604.322937 1123.016479,609.090637 
	C1078.827881,613.978821 1041.754150,586.006775 1034.368408,542.206055 
	C1029.055420,510.696747 1045.100342,478.713531 1075.277344,461.172058 
M1114.348755,562.180847 
	C1127.586182,561.217407 1136.969849,554.492004 1141.808228,542.338318 
	C1146.669434,530.127075 1144.360718,518.598755 1135.245850,509.105560 
	C1126.132080,499.613708 1114.790771,497.025330 1102.284302,501.124268 
	C1088.259888,505.720673 1079.149292,520.608032 1081.289062,534.755737 
	C1083.781006,551.231506 1096.180542,561.830017 1114.348755,562.180847 
z"/>
<path fill="#FBFBFB" opacity="1.000000" stroke="none" 
	d="
M932.756348,631.788818 
	C928.390259,633.715820 925.201294,632.531921 923.227722,628.808777 
	C921.071594,624.741272 922.595215,617.603760 925.708008,615.635071 
	C929.191833,613.431763 934.646179,614.886597 935.530701,618.836853 
	C936.510315,623.211914 937.618713,628.070190 932.756348,631.788818 
z"/>
<path fill="#FBFBFB" opacity="1.000000" stroke="none" 
	d="
M932.980957,424.740723 
	C937.600281,428.642273 936.666260,433.455688 935.405884,437.779968 
	C934.128906,442.161377 928.147217,443.130768 924.747131,440.027588 
	C922.413025,437.897278 921.450439,430.674133 923.305664,427.399353 
	C925.444824,423.623169 928.742920,422.936371 932.980957,424.740723 
z"/>
<path fill="#FBFBFB" opacity="1.000000" stroke="none" 
	d="
M922.801880,532.032959 
	C922.715881,529.342407 922.416992,526.990906 922.781860,524.747498 
	C923.444763,520.672302 926.298279,518.688721 930.231812,519.203003 
	C933.884644,519.680542 936.037048,522.136719 936.097107,526.027344 
	C936.163208,530.306946 936.922302,535.103943 931.522461,536.821289 
	C927.555786,538.082886 924.384521,536.601318 922.801880,532.032959 
z"/>
<path fill="#FDFDFD" opacity="1.000000" stroke="none" 
	d="
M1404.623047,863.323303 
	C1399.305908,874.188477 1389.481689,880.048523 1379.262695,878.695679 
	C1368.325684,877.247803 1360.035278,869.742981 1357.849121,859.311401 
	C1355.742554,849.260681 1359.787720,839.357056 1368.292480,833.743835 
	C1376.664917,828.217651 1387.775879,828.380127 1395.959229,834.147949 
	C1404.341064,840.055725 1408.112549,850.485840 1405.508545,860.578918 
	C1405.301147,861.383240 1405.039673,862.173584 1404.623047,863.323303 
z"/>
<path fill="#FDFDFD" opacity="1.000000" stroke="none" 
	d="
M478.818420,829.879578 
	C492.544464,831.506287 502.053009,842.048340 501.691254,854.763611 
	C501.330200,867.453918 491.509430,877.804626 478.836823,878.851440 
	C466.654877,879.857666 454.841766,870.679565 452.961609,858.747986 
	C450.885895,845.575439 458.311798,833.840210 470.973480,830.575562 
	C473.343597,829.964478 475.900879,830.079407 478.818420,829.879578 
z"/>
<path fill="#818181" opacity="1.000000" stroke="none" 
	d="
M991.293762,329.026306 
	C991.359619,328.695404 991.915405,328.086334 992.468689,328.088623 
	C1008.502625,328.154022 1024.536255,328.280579 1040.881592,328.708435 
	C1024.723022,329.024109 1008.252747,329.028595 991.293762,329.026306 
z"/>
<path fill="#818181" opacity="1.000000" stroke="none" 
	d="
M1106.156738,1430.150635 
	C1106.996704,1413.051636 1107.816650,1396.432129 1108.636719,1379.812500 
	C1108.116577,1379.768188 1107.596558,1379.723877 1107.076416,1379.679565 
	C1095.575928,1472.894775 1084.075317,1566.110107 1072.547974,1659.542603 
	C1055.622192,1659.542603 1039.026245,1659.542603 1021.940002,1659.542603 
	C1010.570190,1564.741089 999.199707,1469.934692 987.829224,1375.128296 
	C987.595154,1375.146606 987.361084,1375.164917 987.127014,1375.183228 
	C988.801025,1422.386963 991.131775,1469.579224 991.964905,1516.797974 
	C992.802368,1564.260132 992.148926,1611.748413 992.148926,1659.515137 
	C978.580200,1659.515137 965.323303,1659.515137 951.705566,1659.515137 
	C951.705566,1541.474854 951.705566,1423.420532 951.705566,1305.116577 
	C972.377075,1305.116577 992.967957,1305.116577 1014.027222,1305.116577 
	C1025.080322,1398.813599 1036.133423,1492.510132 1047.186523,1586.206665 
	C1047.514771,1586.240112 1047.843018,1586.273560 1048.171265,1586.307129 
	C1059.357544,1492.685547 1070.543945,1399.063965 1081.762695,1305.170898 
	C1102.409424,1305.170898 1122.834351,1305.170898 1143.620728,1305.170898 
	C1143.620728,1423.025635 1143.620728,1541.085938 1143.620728,1659.476074 
	C1130.377441,1659.476074 1116.992554,1659.476074 1102.982300,1659.476074 
	C1103.813721,1583.113892 1101.085693,1506.828857 1106.156738,1430.150635 
z"/>
<path fill="#818181" opacity="1.000000" stroke="none" 
	d="
M852.175720,1508.000000 
	C852.175720,1558.780640 852.175720,1609.061279 852.175720,1659.800903 
	C837.419128,1659.800903 823.130371,1659.874390 808.846436,1659.646118 
	C807.824219,1659.629883 806.234619,1657.542358 805.923035,1656.185303 
	C799.860413,1629.775757 793.933167,1603.335327 788.009521,1576.894043 
	C774.895203,1518.355591 761.798218,1459.813232 748.064819,1401.285767 
	C748.064819,1402.709473 747.956360,1404.142700 748.080811,1405.555420 
	C750.565430,1433.759033 753.080627,1461.959961 755.576294,1490.162598 
	C755.767029,1492.318115 755.979370,1494.482422 755.980286,1496.642578 
	C756.002502,1549.968506 755.997559,1603.294556 755.997314,1656.620483 
	C755.997314,1657.448975 755.997253,1658.277588 755.997253,1659.455811 
	C742.448730,1659.455811 729.065613,1659.455811 715.388428,1659.455811 
	C715.388428,1541.373413 715.388428,1423.334839 715.388428,1305.082031 
	C731.150452,1305.082031 746.749207,1305.082031 762.700867,1305.082031 
	C781.232422,1390.833252 799.755493,1476.545166 818.278564,1562.257080 
	C818.599792,1562.221069 818.921021,1562.185181 819.242249,1562.149170 
	C817.506714,1540.930420 815.432312,1519.732300 814.130554,1498.486938 
	C812.817383,1477.057007 811.926453,1455.586914 811.485779,1434.121460 
	C811.044617,1412.633423 811.388794,1391.129395 811.388794,1369.632324 
	C811.388794,1348.176392 811.388855,1326.720337 811.388855,1305.068115 
	C825.147217,1305.068115 838.409363,1305.068115 852.175720,1305.068115 
	C852.175720,1372.640015 852.175720,1440.070068 852.175720,1508.000000 
z"/>
<path fill="#818181" opacity="1.000000" stroke="none" 
	d="
M880.601135,1384.999512 
	C880.601196,1358.188354 880.601196,1331.877075 880.601196,1305.216309 
	C894.912781,1305.216309 908.969482,1305.216309 923.347595,1305.216309 
	C923.347595,1423.163696 923.347595,1541.195435 923.347595,1659.517334 
	C909.276123,1659.517334 895.349121,1659.517334 880.601074,1659.517334 
	C880.601074,1568.251587 880.601074,1476.875610 880.601135,1384.999512 
z"/>
<path fill="#818181" opacity="1.000000" stroke="none" 
	d="
M845.803589,942.839478 
	C844.529968,951.346069 843.921326,959.549438 841.832825,967.356812 
	C838.980286,978.020630 831.985474,986.079590 821.903809,992.790710 
	C822.887634,993.237793 823.517822,993.426208 824.040222,993.775818 
	C837.799683,1002.982422 845.149292,1016.473938 845.682861,1032.404907 
	C846.630066,1060.683716 847.148743,1089.080078 845.645630,1117.309937 
	C844.002563,1148.168335 820.486938,1171.669312 789.632751,1173.810547 
	C765.249268,1175.502441 740.690125,1174.663330 716.208923,1174.943604 
	C714.419006,1174.964111 712.628601,1174.946411 710.621826,1174.946411 
	C710.621826,1056.556396 710.621826,938.630859 710.621826,820.320068 
	C711.854553,820.210144 713.107056,820.002136 714.359680,820.001160 
	C735.856873,819.984741 757.372559,819.472900 778.842773,820.236328 
	C788.329224,820.573608 798.250244,822.138245 807.057373,825.527588 
	C830.445496,834.528564 842.892273,853.046692 844.756287,877.427551 
	C846.403503,898.972473 845.555359,920.708252 845.803589,942.839478 
M775.412109,1134.991211 
	C794.169556,1134.881470 803.353394,1125.924072 803.602112,1106.606445 
	C803.891602,1084.127441 803.685730,1061.641479 803.625427,1039.158936 
	C803.617859,1036.337891 803.315979,1033.500244 802.931824,1030.700439 
	C801.299927,1018.807678 794.805908,1011.857422 782.856201,1010.892944 
	C773.308594,1010.122314 763.649170,1010.737305 753.738953,1010.737305 
	C753.738953,1051.985352 753.738953,1093.357544 753.738953,1134.991455 
	C760.806030,1134.991455 767.620605,1134.991455 775.412109,1134.991211 
M753.440369,963.403564 
	C753.440369,966.349487 753.440369,969.295410 753.440369,972.264221 
	C762.997009,972.264221 771.978333,972.786499 780.875061,972.141479 
	C794.127930,971.180725 801.242554,964.533997 801.943787,951.386902 
	C802.873596,933.955322 802.672424,916.459106 802.765320,898.989624 
	C802.798889,892.681641 802.725342,886.312256 801.909424,880.074402 
	C800.551514,869.693848 794.014160,862.011536 783.867310,860.843750 
	C773.948181,859.702148 763.794983,860.595337 753.440430,860.595337 
	C753.440430,894.543945 753.440430,928.485352 753.440369,963.403564 
z"/>
<path fill="#818181" opacity="1.000000" stroke="none" 
	d="
M958.545532,1177.740479 
	C945.162720,1179.950562 932.234619,1180.031860 919.480896,1176.575439 
	C894.521423,1169.811157 877.503296,1150.292603 874.075867,1124.572144 
	C873.483337,1120.125488 873.040833,1115.618896 873.037170,1111.139526 
	C872.974854,1035.310547 872.965454,959.481506 873.016296,883.652466 
	C873.026672,868.161072 876.503418,853.549988 885.841919,840.890625 
	C898.698120,823.462585 916.807312,816.391907 937.797485,815.715759 
	C960.859619,814.972717 981.422913,820.803101 996.304871,839.829712 
	C1006.243408,852.536377 1009.941589,867.449646 1009.966797,883.298767 
	C1010.060791,942.295288 1010.016541,1001.292053 1010.018860,1060.288696 
	C1010.019531,1077.954346 1010.399109,1095.631104 1009.897217,1113.282715 
	C1009.225586,1136.904907 1001.012207,1157.030273 979.741333,1169.542969 
	C973.415039,1173.264404 965.921753,1175.001709 958.545532,1177.740479 
M967.000122,887.542419 
	C966.974915,885.210938 967.048645,882.873535 966.908569,880.549011 
	C965.979614,865.128418 956.832642,855.952881 942.005981,855.508423 
	C927.546570,855.074890 917.979126,863.742737 916.219238,878.987793 
	C915.934021,881.458679 916.007080,883.977173 916.006775,886.473694 
	C915.996948,960.425476 915.997986,1034.377319 916.003052,1108.329102 
	C916.003174,1110.493774 915.955994,1112.666626 916.117310,1114.821777 
	C917.009583,1126.740723 922.906921,1135.031738 932.585388,1138.083496 
	C950.267822,1143.658936 965.407349,1133.431763 966.872864,1114.879272 
	C967.056091,1112.559692 966.995483,1110.218506 966.995667,1107.887329 
	C967.001160,1034.768311 967.000061,961.649353 967.000122,887.542419 
z"/>
<path fill="#818181" opacity="1.000000" stroke="none" 
	d="
M1083.000000,819.987183 
	C1109.646729,819.987183 1135.793457,819.987183 1162.165649,819.987183 
	C1162.165649,833.352295 1162.165649,846.455200 1162.165649,859.931763 
	C1147.377563,859.931763 1132.784790,859.931763 1117.743652,859.931763 
	C1117.743652,965.003235 1117.743652,1069.702637 1117.743652,1174.673340 
	C1103.228394,1174.673340 1089.165771,1174.673340 1074.647949,1174.673340 
	C1074.647949,1069.808716 1074.647949,965.098511 1074.647949,860.016479 
	C1059.608887,860.016479 1045.016357,860.016479 1030.145996,860.016479 
	C1030.145996,846.589539 1030.145996,833.532166 1030.145996,819.987183 
	C1047.614380,819.987183 1065.057251,819.987183 1083.000000,819.987183 
z"/>
<path fill="#818181" opacity="1.000000" stroke="none" 
	d="
M717.338013,519.566650 
	C723.383545,506.201691 735.253418,498.496582 748.135376,499.327850 
	C761.786804,500.208801 773.200500,509.099274 776.949219,521.771851 
	C780.762878,534.663757 776.097900,548.406372 765.214661,556.341309 
	C754.552063,564.115417 739.620056,564.252136 728.738647,556.675232 
	C717.805786,549.062561 712.923706,535.427856 716.439819,522.307617 
	C716.655029,521.504578 716.926636,520.716614 717.338013,519.566650 
M743.342834,538.320496 
	C753.092102,537.720276 757.337219,526.386963 751.925781,519.397949 
	C748.629089,515.140076 742.981873,513.518250 738.078125,515.447388 
	C732.952209,517.463928 729.994873,522.647156 730.761230,528.270996 
	C731.546326,534.032349 735.588074,537.511780 743.342834,538.320496 
z"/>
<path fill="#818181" opacity="1.000000" stroke="none" 
	d="
M1113.886719,562.202209 
	C1096.180542,561.830017 1083.781006,551.231506 1081.289062,534.755737 
	C1079.149292,520.608032 1088.259888,505.720673 1102.284302,501.124268 
	C1114.790771,497.025330 1126.132080,499.613708 1135.245850,509.105560 
	C1144.360718,518.598755 1146.669434,530.127075 1141.808228,542.338318 
	C1136.969849,554.492004 1127.586182,561.217407 1113.886719,562.202209 
M1100.349731,517.713928 
	C1092.914917,524.223389 1096.506958,535.959351 1105.454468,538.038452 
	C1110.935059,539.311951 1116.373413,536.806091 1118.892090,531.969971 
	C1121.297974,527.350586 1120.254517,521.480530 1116.382324,517.852173 
	C1112.130249,513.867737 1106.797974,513.641479 1100.349731,517.713928 
z"/>
<path fill="#FBFBFB" opacity="1.000000" stroke="none" 
	d="
M774.923645,1134.991333 
	C767.620605,1134.991455 760.806030,1134.991455 753.738953,1134.991455 
	C753.738953,1093.357544 753.738953,1051.985352 753.738953,1010.737305 
	C763.649170,1010.737305 773.308594,1010.122314 782.856201,1010.892944 
	C794.805908,1011.857422 801.299927,1018.807678 802.931824,1030.700439 
	C803.315979,1033.500244 803.617859,1036.337891 803.625427,1039.158936 
	C803.685730,1061.641479 803.891602,1084.127441 803.602112,1106.606445 
	C803.353394,1125.924072 794.169556,1134.881470 774.923645,1134.991333 
z"/>
<path fill="#FBFBFB" opacity="1.000000" stroke="none" 
	d="
M753.440430,962.915161 
	C753.440430,928.485352 753.440430,894.543945 753.440430,860.595337 
	C763.794983,860.595337 773.948181,859.702148 783.867310,860.843750 
	C794.014160,862.011536 800.551514,869.693848 801.909424,880.074402 
	C802.725342,886.312256 802.798889,892.681641 802.765320,898.989624 
	C802.672424,916.459106 802.873596,933.955322 801.943787,951.386902 
	C801.242554,964.533997 794.127930,971.180725 780.875061,972.141479 
	C771.978333,972.786499 762.997009,972.264221 753.440369,972.264221 
	C753.440369,969.295410 753.440369,966.349487 753.440430,962.915161 
z"/>
<path fill="#FFFFFF" opacity="1.000000" stroke="none" 
	d="
M967.000122,888.036377 
	C967.000061,961.649353 967.001160,1034.768311 966.995667,1107.887329 
	C966.995483,1110.218506 967.056091,1112.559692 966.872864,1114.879272 
	C965.407349,1133.431763 950.267822,1143.658936 932.585388,1138.083496 
	C922.906921,1135.031738 917.009583,1126.740723 916.117310,1114.821777 
	C915.955994,1112.666626 916.003174,1110.493774 916.003052,1108.329102 
	C915.997986,1034.377319 915.996948,960.425476 916.006775,886.473694 
	C916.007080,883.977173 915.934021,881.458679 916.219238,878.987793 
	C917.979126,863.742737 927.546570,855.074890 942.005981,855.508423 
	C956.832642,855.952881 965.979614,865.128418 966.908569,880.549011 
	C967.048645,882.873535 966.974915,885.210938 967.000122,888.036377 
z"/>
<path fill="#FDFDFD" opacity="1.000000" stroke="none" 
	d="
M742.918945,538.346375 
	C735.588074,537.511780 731.546326,534.032349 730.761230,528.270996 
	C729.994873,522.647156 732.952209,517.463928 738.078125,515.447388 
	C742.981873,513.518250 748.629089,515.140076 751.925781,519.397949 
	C757.337219,526.386963 753.092102,537.720276 742.918945,538.346375 
z"/>
<path fill="#FBFBFB" opacity="1.000000" stroke="none" 
	d="
M1100.634521,517.454956 
	C1106.797974,513.641479 1112.130249,513.867737 1116.382324,517.852173 
	C1120.254517,521.480530 1121.297974,527.350586 1118.892090,531.969971 
	C1116.373413,536.806091 1110.935059,539.311951 1105.454468,538.038452 
	C1096.506958,535.959351 1092.914917,524.223389 1100.634521,517.454956 
z"/>
</svg>